<?xml version="1.0" encoding="UTF-8"?>
<svg width="210mm" height="297mm" version="1.1" viewBox="0 0 210 297" xmlns="http://www.w3.org/2000/svg" xmlns:cc="http://creativecommons.org/ns#" xmlns:dc="http://purl.org/dc/elements/1.1/" xmlns:rdf="http://www.w3.org/1999/02/22-rdf-syntax-ns#">
 <metadata>
  <rdf:RDF>
   <cc:Work rdf:about="">
    <dc:format>image/svg+xml</dc:format>
    <dc:type rdf:resource="http://purl.org/dc/dcmitype/StillImage"/>
    <dc:title/>
   </cc:Work>
  </rdf:RDF>
 </metadata>
 <path d="m-207.89 93.685c0.0882-0.1083 0.1645-0.21851 0.23521-0.3298-0.0386-0.03759-0.0746-0.07715-0.11567-0.11294-6e-3 -0.0056-0.0166 0.02085-0.0214 0.03109-0.0567 0.11885-0.20718 0.36594-0.28413 0.51795 0.0617-0.03552 0.1238-0.0708 0.18594-0.10626 1e-5 -1.6e-5 2e-5 -3.3e-5 3e-5 -5e-5zm-19.003 40.277c-0.20798-0.84296-0.40347-1.3512-0.37906-0.62685 0.0461 1.3689 0.0178 4.3457-0.15842 4.2903-0.0894-0.028-0.35532-0.59418-0.57043-1.2697-0.19692-0.6182-0.30594-0.85594-0.16027-0.16948 0.69287 3.2645-0.5904-1.5302-0.81299-2.8507-0.37667-2.2348-0.39422-2.7469-0.58015-3.473-0.13054-0.50867-0.27734-1.5434-0.32334-2.4833-0.0166-0.34294-0.0238-0.62172-0.0246-0.82986-4e-3 -0.60968 0.0406-0.69316 0.12918-0.54398 0.17757 0.29911 0.16071-1.8752 0.52612-5.1402 0.2225-1.9888 0.32831-4.017-0.0647-2.8722-0.0925 0.26938-0.0804-0.20286 0.12051-1.2292 0.21292-1.0878 0.29813-1.5772 0.0733-1.0204-1.1953 2.9606 0.42188-3.3107 1.9957-6.6316 0.74648-1.5752 0.60071-1.098 0.31692-0.28104-0.97516 2.807-0.23065 1.3561 1.8601-2.4878 1.1168-2.0533 1.2223-2.1333 1.5439-3.4394 0.085-0.34518 0.15903-0.61009 1.5821-2.2653 1.4189-1.6504 1.4228-1.4608 1.18-0.99221-0.3526 0.68026-0.10326 0.38345 0.92092-0.68234 0.34243-0.35636 0.71851-0.71969 1.0952-1.0591 0.43274-0.39229 0.82517-0.71514 1.0738-0.89788 0.63576-0.46736 3.9617-3.1793 4.302-3.5104 0.31186-0.30355 0.2456-0.3915-0.20168-0.15358-0.70612 0.3757-0.52796 0.06744 2.444-1.6646 3.5784-2.0861 5.018-2.552 5.5408-2.9577 0.22843-0.17723-0.71606 0.05279-1.9165 0.50069-1.2502 0.46645-2.5349 1.0791-3.2767 1.555-1.9985 1.2821-3.5114 2.2498-5.6795 3.8983-1.7701 1.3459-3.0729 2.4861-2.9821 2.1652 0.0968-0.34204 1.8076-2.1403 5.2018-4.2601 1.5444-0.96451 2.4836-1.4701 2.0176-1.2562-0.42859 0.19679-0.64069 0.17885 1.2312-1.0214 1.4743-0.9454 3.3649-2.0361 5.6875-3.0771 2.8408-1.2733 4.4111-1.6604 6.2351-1.9817 1.4092-0.24814 3.8468-0.59934 5.4215-0.7544 1.2335-0.12151 2.2952-0.14966 2.9279-0.14078 0.1896 0.0022 0.32358 0.0079 0.3822 0.01503 0.24295 0.02938 2.136 0.02875 4.2011 0.2137 2.2771 0.20383 4.3582 0.64347 5.5502 0.98279 4.2131 1.1991 8.141 3.0432 8.0023 2.7579-0.0327-0.06726-2.9111-1.5773-6.4869-2.6817-3.9423-1.2176-7.4429-1.6342-9.857-1.7159-1.0584-0.03578-1.5002-0.02946-1.8047-0.08743-0.16412-0.03157-0.24468-0.07848-0.30555-0.14824-0.22111-0.25355-1.7495-0.63131-7.3725 0.56575-4.3906 0.93474-5.5356 1.5893-2.3362 0.84388 3.5655-0.83067 1.8649-0.5791-2.7689 0.90499-5.4684 1.7514-6.9338 2.5057-3.2957 0.81205 1.3295-0.6189 2.5017-1.1115 2.5638-1.1845 0.0639-0.07532 0.77252-0.43058 1.602-0.76492 1.0504-0.42338 2.003-0.77631 3.1282-1.1512 1.0847-0.3614 2.3192-0.65904 3.6977-0.85597 1.3782-0.1969 3.4843-0.48102 5.0474-0.62436 1.3669-0.12672 2.3945-0.18952 1.9178-0.2614-0.48691-0.07344 0.24723-0.17162 2.808 0.01108 5.1985 0.37088 5.4269 0.32289 0.83384-0.92965-1.3228-0.36068-2.6719-0.6616-4.0431-0.89818 2.1117-0.04536 4.2304 0.0622 6.3365 0.31726 8.6499 1.0477 10.933 2.5791 9.4776 1.8198-0.62634-0.32676-0.84881-0.58166-0.44003-0.56709 0.47628 0.01715 0.37233-0.19676-1.8352-1.0736-2.0139-0.79994-3.2294-1.1258-5.2111-1.4405-2.1134-0.33565-6.5177-0.83377-2.9726-0.56495 2.0969 0.15906 4.7847 0.4164 1.634-0.1803-1.1514-0.21806-2.3882-0.37196-3.1896-0.426-0.69953-0.04716-2.8678-0.2619-4.8398-0.3305-0.19573-0.0068-0.39227-0.01206-0.58927-0.01573-1.8596-0.03209-3.4812 0.08785-4.0875 0.172-1.4349 0.1992-3.6552 0.33865-1.5375-0.12954 0.14653-0.03239 2.1383-0.77517-2.0041-0.02883-0.95883 0.17282-2.0584 0.52772-2.7495 0.87295-0.61507 0.30728-1.4168 0.65346-1.7231 0.73105-0.46019 0.1166-2.7572 0.66291-5.6196 1.7337-3.7178 1.3908-5.8573 2.6613-7.786 3.9928-1.9768 1.3646-3.105 2.2764-4.3234 3.2423-1.0202 0.80863-1.8302 1.5712-2.4816 2.2902-0.34724 0.38286-0.87717 0.93918-1.527 1.6498-0.52145 0.57207-1.1126 1.2362-1.7515 1.9943-1.3443 1.5957-2.4576 3.2042-3.0423 4.1679-0.47877 0.78907-1.0395 1.7003-1.2122 1.9207-0.22071 0.28163-1.1135 1.7064-1.9761 3.4122-1.4692 2.9053-1.516 3.1157-2.6561 5.1662-0.74222 1.335-1.0797 1.8338-0.90364 1.0047 0.29649-1.3965 0.175-1.9552-0.57297-0.0539-0.31634 0.80393-0.4692 0.88869-0.30559-0.094 0.20649-1.2398-1.131 0.45385-1.9985 4.3651-0.85237 3.843 0.23057 2.1356 0.66049 0.79023 0.73164-2.2896 0.66454-1.6156 0.80553 1.1364 0.0873 1.7039-0.14016 4.6091-0.44509 4.9812-0.32524 0.39692-0.69335 2.4726-0.65723 4.3734 0.0103 0.5454 0.0462 1.0446 0.0882 1.3845 0.0264 0.2103 0.0541 0.3518 0.0769 0.38855 0.0593 0.0956 0.18411 1.1742 0.33974 2.3858 0.21774 1.6955 0.34615 2.6852 0.54572 4.3204 0.25554 2.094 0.89998 5.3601 2.7336 9.661 2.2592 5.2991 3.3826 6.6719 3.6985 7.5793 0.16338 0.46923 0.71816 1.6422 2.4602 4.008 1.3837 1.8793 2.8297 3.468 3.6654 4.2742 0.4024 0.38821 0.99823 0.98522 1.7036 1.6619 0.64392 0.61534 1.3139 1.236 2.0558 1.8943 0.78709 0.6987 12.475 8.8822 4.7671 2.8926-1.4477-1.125-1.0406-0.91759-0.38429-0.49331 0.77024 0.49788 1.9757 1.1423 3.0082 1.59 1.5979 0.6929 1.9258 0.908 4.4949 2.109 1.5357 0.7179 3.2916 1.458 3.8621 1.7385 0.63194 0.31072 1.8248 0.77992 2.9427 1.1226 1.5371 0.47118 1.3718 0.47588-0.81411-0.1389-6.3085-1.7743-10.087-3.7091-7.1525-2.1895 0.89173 0.46179 2.5984 1.2194 4.6102 1.9055 1.9811 0.67569 3.7321 1.1 4.4396 1.2197 0.53184 0.0901 1.9788 0.39826 3.0768 0.62313 1.4239 0.29167 2.6462 0.43152 4.2044 0.46314 2.9083 0.059 3.2425 0.0203 5.4396 0.24198 0.20704 0.0208 0.35183 0.0381 0.43205 0.0548 0.0923 0.0191 0.0962 0.0374 1e-3 0.0564-0.17586 0.0348-0.82742 0.0848-1.9102 0.0934-3.8722 0.0308-3.9524 0.28189-0.0755 0.44275 0.65917 0.0273 1.3334 0.0368 1.9998 0.0285 0.98711-0.0143 1.8187-0.0666 2.2792-0.1117 0.35973-0.0352 2.4642-0.20198 2.9761-0.23787 1.1661-0.0818 2.6465-0.33272 3.9046-0.63863 1.2627-0.30698 1.8186-0.53675 1.2093-0.45882-0.45118 0.0577-1.7453 0.28813-2.439 0.4262-0.86215 0.17136-2.1788 0.31136-3.2286 0.33036-2.3804 0.0431-0.84672-0.0244 2.0438-0.58864 4.1879-0.8175 6.9744-1.7751 8.3919-2.1062 1.5286-0.35707 4.2148-1.5366 5.5274-2.4286 0.89398-0.60749 1.2571-0.60783 4.8776-2.8517 2.7072-1.6778 4.4011-3.1116 5.5769-4.2384 1.9276-1.8472 1.5432-1.5854 2.8059-2.5586 0.0486-0.0374 0.0965-0.075 0.14389-0.11265 0.66782-0.53311 1.2604-1.1266 1.9413-1.9735 0.75878-0.94382 0.55413-0.83875-0.0958-0.22921-0.37251 0.3493-0.75011 0.69205-1.1326 1.0281 1.7163-2.0215 3.2535-4.1782 4.6026-6.4382 2.8459-4.7679 3.7279-8.0315 3.8027-8.3399 0.45345-1.8695-0.51809-0.58864-1.868 1.6437-1.0251 1.6952-1.0199 1.4139-0.65816 0.20372 0.80401-2.6895-0.24659-0.29189-2.009 2.8152-1.1076 1.9527-2.4363 3.7768-3.7087 5.2375-1.2463 1.4307-2.0236 2.0596-1.7835 1.6575 0.52873-0.88571 0.44058-0.59671 2.0566-2.7544 0.95166-1.2706 1.7274-2.4957 2.0598-3.0832 0.51296-0.90661 0.92942-1.544 1.8668-3.3267 0.78194-1.4881 1.4198-2.9954 1.7386-3.8986 0.35524-1.0064 0.54331-1.4899 0.75056-1.7504 0.85573-1.076 2.9671-5.4017 3.3517-12.667 0.0644-1.2157 0.0684-2.2179 0.0658-2.8548-7e-3 -1.6-0.0317-1.8688 0.11353-1.2753 0.17545 0.71692 0.3443 4e-3 0.24462-1.9916-0.0979-1.9611-0.45913-4.538-1.2525-7.286-1.7329-6.0018-1.3955-2.8051-1.2956-2.2818 0.30659 1.606 0.12231 1.2975-0.43226 0.0348-0.43086-0.98099-0.99071-1.7791-1.2108-1.8073-0.13193-0.017-0.26382-0.0335-0.39565-0.0496 0.51775 1.537 0.95325 3.0983 1.3036 4.6746 0.70769 3.1845 1.0598 6.1593 1.1425 9.1928 8e-3 0.29127 0.0127 0.56947 0.0152 0.83335 0.0217 2.2585-0.12963 5.4742-0.47564 8.1484-0.45418 3.5102-0.81327 4.4069-0.8042 4.0622 7e-3 -0.25407-0.16791 0.12838-0.39959 0.80098-0.24649 0.71574-0.36546 0.8653-0.29213 0.4945 0.22026-1.1139-0.70258 1.4556-2.3848 4.8853-1.6808 3.4268-1.309 2.1942-1.256 2.0477 0.39705-1.0972-0.18331-0.46982-1.0199 0.63489-0.88386 1.1672-2.1984 2.9713-3.4616 4.6534-2.2083 2.9407-2.3968 2.9741-0.63041 0.33553 3.3322-4.9772 4.6858-9.8118 4.339-9.2182-0.19529 0.33442-0.57984 1.1284-0.7921 1.6244-0.28456 0.6649-1.3756 2.9016-3.0513 5.3448-1.6194 2.361-3.2051 4.2066-4.511 5.6145-0.22452 0.24323-0.4401 0.47273-0.64424 0.68777-1.373 1.4463-2.7395 2.6626-3.9995 3.6716-1.2022 0.96271-3.1424 2.285-5.5033 3.4979-2.2602 1.1611-4.279 1.8868-4.8456 2.0221-0.60519 0.14457 0.22646-0.18076 1.8572-0.96655 2.8642-1.3801 3.0309-1.6935 0.43176-0.58496-1.1621 0.49558-2.3958 1.0271-3.8088 1.597-1.1741 0.47341-3.9604 1.4704-8.0544 1.9656-1.5347 0.18564-2.9309 0.27143-4.1911 0.29916-1.4687 0.0364-2.5705-0.0105-2.8971-5e-3 -1.9523 0.0343-5.3086-0.54409-6.9449-1.1668-0.83003-0.3159-1.584-0.46153-3.9945-1.2298-1.9618-0.62517-4.255-1.583-6.8325-3.1479-2.2219-1.3492-3.915-2.7203-4.495-3.2479-0.59281-0.53926-1.4724-1.2176-2.8494-2.4159-0.15763-0.1372-0.31448-0.27728-0.46972-0.41948-0.96481-0.87807-1.7558-1.7407-2.0882-2.1691-0.63566-0.81948-1.5896-2.0059-2.7778-3.8363-1.0524-1.6211-1.9219-3.2559-2.1556-3.6499-0.22502-0.37946-0.42894-0.5767-0.45868-0.42566-0.0596 0.30251-0.82694-0.96082-1.0941-1.8261-0.25863-0.8378-0.57083-2.2498-0.77114-3.7376-0.18902-1.4039-0.23625-2.6269-0.1856-2.7034 0.065-0.0981 0.0229-0.5854-0.0815-1.079-0.081-0.38282-0.16144-0.7383-0.23447-1.0341-1.9e-4 6e-5 -3.8e-4 1.3e-4 -5.6e-4 1.9e-4zm14.018-39.264c-0.0161-0.0097-0.0157-0.0074-0.0261-0.01298-5e-3 0.0035-0.0104 0.0073-0.0156 0.01099 5e-3 0.0064 4e-3 0.0048 0.0102 0.0136 0.0102-0.0039 0.0202-0.0076 0.031-0.0107 1.5e-4 -3.05e-4 3e-4 -6.1e-4 4.6e-4 -9.15e-4zm-4.8864 4.0923c0.0109-0.01165 0.0217-0.02331 0.0325-0.03498 0.23321-0.25409 0.45562-0.51994 0.83118-0.94516 0.061-0.13982 0.13334-0.28158 0.21705-0.42458-0.22551 0.08494-0.79342 0.46542-1.4392 0.9978-0.76853 0.62914-1.5615 1.4009-2.1416 2.1214-0.66607 0.828-1.1134 1.342-1.6229 1.7941-0.48556 0.43087-1.109 1.1353-2.2023 2.9612-1.1125 1.858-1.4868 2.7953-1.7629 3.6258-0.83411 2.5087 1.0432-1.1702 2.7506-4.1504 0.6202-1.0825 0.99563-1.5552 1.8532-2.3522 0.62861-0.58461 1.5269-1.5092 2.2127-2.2548 0.66305-0.72088 0.99639-1.0429 1.2716-1.3383zm24.917-12.635c0.32523-0.0265 1.3967-0.12947 2.2876-0.18438-2.8e-4 1.8e-5 0.0655-0.0042 0.0652-0.0042 2.0264-0.12862 2.8198-0.07354 1.694-0.25746-0.46027-0.0752-1.0695-0.12025-1.7686-0.11587-0.32659 1e-3 -0.67087 0.01274-1.0283 0.03653-2.7374 0.18217-3.0245 0.557-2.4382 0.57176 0.34907 0.0088 0.65452-0.0026 1.1884-0.04641zm36.024 62.544c-0.0735 0.10536-0.14742 0.21308-0.21561 0.31541-0.26743 0.39896-0.3798 0.61106-0.2056 0.43184 0.17365-0.17864 0.52091-0.63804 0.79416-1.0653 0.274-0.42835 0.34005-0.60698 0.19132-0.43943-0.11527 0.12979-0.34528 0.44434-0.56402 0.75768-9e-5 -6e-5 -1.7e-4 -1.2e-4 -2.5e-4 -1.7e-4zm-12.745-57.937c0.23228 0.13102 0.47071 0.26386 0.74713 0.4176 0.84 0.46865 1.581 0.8877 1.6702 0.89193 0.11656 0.0054 0.50209 0.23312 1.3326 0.86459 1.4654 1.1142 3.5412 2.8402 3.7397 2.8819 0.52052 0.10944-2.5578-2.4498-3.9098-3.3037-0.77548-0.48971-2.0437-1.271-2.8199-1.739-2.8107-1.6948-2.7324-1.2502-2.4025-1.0201 0.46815 0.32667 0.94566 0.61399 1.6426 1.0068zm-3.2611-3.9183c1.9881 0.85063 5.0928 2.4062 5.8886 2.7288 0.63739 0.25838 0.74685 0.21415-0.62948-0.69447-2.1796-1.439-4.9008-2.606-6.7625-3.0497-1.4756-0.35167-0.71842 0.04999 0.73598 0.68521 0.22198 0.09713 0.48542 0.20927 0.76759 0.32984zm25.712 36.273c6e-3 0.11316 0.0145 0.24104 0.0253 0.37885 0.0414 0.53713 0.0857 0.81527 0.11138 0.55021 0.0248-0.25643 0.0282-0.63884 8e-3 -0.87536-0.0202-0.23109-0.0757-0.47642-0.12323-0.54789-0.0359-0.0541-0.0396 0.15536-0.0214 0.49418zm-34.618-39.582c0.84769 0.1587 1.5834 0.31162 2.3487 0.47974 2.5308 0.5561 4.5995 1.1221 2.313 0.18442-0.8439-0.34608-2.4448-0.83025-4.2631-1.1877-1.8226-0.35832-3.4842-0.5149-4.415-0.51303-1.7597 0.0035-0.0463 0.32971 1.9954 0.68282 0.57499 0.09946 1.1438 0.18998 2.021 0.35376zm34.119 31.213c0.89521 3.4791 1.5601 7.5691 1.3993 4.7686-0.0445-0.77495-0.34218-2.9095-0.97551-5.2747-0.82262-3.0727-1.3415-4.3146-1.6003-5.268-0.50492-1.8609-1.8727-4.6895-3.0617-6.3056-1.6504-2.2431 0.028 0.49052 1.5311 3.6801 1.1331 2.4045 1.5225 3.7473 1.5362 4.0281 0.01 0.20499 0.37213 1.4465 0.71623 2.6784 0.16005 0.57285 0.31056 1.1328 0.45475 1.6931zm-20.714-27.06c0.41049 0.22609 0.82285 0.45834 1.2364 0.69488 1.6013 0.91763 2.9735 1.8781 3.6838 2.4339 2.8436 2.2258 4.5544 3.7667 4.0407 2.5898-0.30045-0.68828-0.61832-1.2367-2.7543-3.0671-2.5969-2.2254-6.5035-4.8299-12.512-6.6845-1.6745-0.51688-3.3744-0.93608-5.0876-1.2547 0.87417 0.30778 1.736 0.64177 2.5841 1.0008 2.9829 1.2627 6.0693 2.7762 8.8092 4.2869-1e-5 1.5e-5 -2e-5 2.9e-5 -3e-5 4.4e-5zm22.528 39.994c-0.0629 1.2197-0.0922 1.9832 4e-3 2.1119 0.28477 0.38267 0.56322-3.4231 0.42426-5.3493-0.0381-0.53129-0.0972-0.95533-0.1624-1.1787-0.10892-0.37307-0.11101-0.0183-0.13679 1.1861-4e-3 0.17175-8e-3 0.36548-0.014 0.57567 0 2e-4 0 4e-4 1e-5 6e-4 -0.0295 1.024-0.077 1.923-0.11473 2.6536 1e-5 0 2e-5 1e-5 4e-5 1e-5zm-1.2575-15.375c0.0639 0.20242 0.13189 0.41442 0.1948 0.60747 0.24785 0.75451 0.40683 1.142 0.34358 0.71828-0.0627-0.41966-0.31082-1.3315-0.6032-2.1357-0.29713-0.81743-0.45412-1.05-0.37848-0.70175 0.06 0.27576 0.25295 0.91025 0.44282 1.5118zm-5.5128-11.854c0.86234 1.2996 1.5877 2.3879 1.2142 1.5604-0.2609-0.57802-0.77819-1.45-1.5759-2.5202-1.878-2.5194-0.50807-0.35121-0.0464 0.34448 0.13579 0.20508 0.27237 0.41017 0.40817 0.61525zm-5.2981-6.5467c0.10081 0.10106 0.20613 0.20523 0.3036 0.30084 0.38365 0.37274 0.59401 0.5437 0.42728 0.31811-0.16599-0.22461-0.60258-0.694-1.0182-1.0804-0.41765-0.38815-0.594-0.49527-0.43816-0.30374 0.12127 0.14913 0.42469 0.46399 0.72532 0.76536zm4.6259 4.9114c1.1641 1.5922 2.3227 3.2132 2.0963 2.631-0.39975-1.028-2.3716-3.8347-3.6241-5.0935-0.63096-0.63407 0.16018 0.57586 1.0416 1.7944 0.15599 0.21561 0.32287 0.44496 0.48665 0.66778zm2.0275 1.9066c0.9341 1.4457 1.6892 2.6571 1.2838 1.707-0.53823-1.2616-2.3248-3.9138-3.176-4.7276-0.33961-0.32472 0.0156 0.16882 0.79843 1.3484 0.40349 0.60801 0.74654 1.1343 1.0937 1.6721zm-13.551 63.57c0.39775-0.24818 0.87094-0.52869 1.1323-0.66242 0.34017-0.17389 0.30693-0.0816-0.18031 0.26163-0.48258 0.33987-1.1366 0.72272-1.5276 0.90146-0.39371 0.17981-0.26444 0.0445 0.1892-0.25407 0.11789-0.078 0.25022-0.16228 0.38648-0.24651zm-9.5473 4.7075c0.5717-0.20942 1.1925-0.40495 2.2928-0.8032 1.2163-0.44019 1.9091-0.70793 0.42842 9e-3 -1.9564 0.94787-4.7817 1.9004-5.7342 2.0442-0.24633 0.0371 0.22736-0.16419 0.98188-0.45633l6e-4 -1.8e-4c0.93678-0.3627 1.4588-0.58439 2.0305-0.79386v-8e-5zm17.025-10.551c0.10782-0.1003 0.0808-0.0564-0.15395 0.19976-0.43662 0.47658-1.0329 1.0506-1.452 1.4049-0.49083 0.41496 0.0696-0.10641 0.76905-0.7859 0.44009-0.4276 0.7198-0.70913 0.83697-0.81867zm-62.684-67.899c-0.34787 0.29996-1.0597 0.90254-1.7607 1.5295-2.5464 2.2777-1.8222 1.2839 1.054-1.1742 1.4837-1.268 1.7037-1.3131 1.5232-1.1095-0.14783 0.16686-0.39638 0.39194-0.81649 0.75417zm52.363-6.1431c0.18071 0.09659 0.34715 0.18492 0.48251 0.25381 0.35575 0.18236 2.098 0.86149-0.36966-0.51489-1.8172-1.0135-3.3355-1.4894-1.8782-0.69164 0.28617 0.15666 1.4582 0.78795 1.7656 0.95234zm-57.062 10.033c-0.41915 0.46747-1.0001 1.0842-1.4474 1.5214-0.51279 0.5014-0.65965 0.56111 0.0318-0.29542 0.44064-0.5455 1.4052-1.8091 1.7347-2.2794 0.12241-0.17466 0.25608-0.35433 0.4081-0.54576 0.50007-0.62818 1.4478-1.6841 3.0244-3.0885 3.142-2.7988 4.1308-3.2876 1.326-0.86978-1.0249 0.8834-1.7391 1.6282-1.6408 1.5973 0.1015-0.03196-0.47165 0.54809-1.2248 1.3172-0.51618 0.52707-0.94505 1.013-1.1935 1.321-0.11721 0.14558-0.18771 0.24363-0.19593 0.2724-0.0431 0.15003-0.38287 0.55978-0.82222 1.049-1.4e-4 1.78e-4 -2.8e-4 3.56e-4 -4.2e-4 5.34e-4zm82.55 33.835c-9e-3 0.15194-0.0174 0.30802-0.0236 0.45355-0.0256 0.56708-0.015 0.85508 0.0441 0.56266 0.0588-0.29095 0.1218-0.96743 0.136-1.5706 0.0142-0.60639-0.023-0.82052-0.063-0.56221-0.0313 0.20136-0.0662 0.6654-0.0931 1.1166-1.3e-4 0-2.6e-4 -1e-5 -4e-4 -2e-5zm-87.999 22.645c0.30697 0.49337 0.77089 1.264 1.1783 1.9512 0.62765 1.0587 1.6561 2.5156 2.9155 3.9639 1.1894 1.3678 2.2796 2.5115 2.6248 2.9438 0.12801 0.16029 0.34161 0.40468 0.60528 0.68724 0.40396 0.43155 0.87737 0.90165 1.3505 1.3337 1.7416 1.5906 1.4913 1.5748-1.5627-1.1106 2e-5 2e-5 -0.0199-0.0175-0.0198-0.0175-1.7852-1.577-3.0959-2.9261-5.1033-5.8787-1.4362-2.1125-2.4586-4.0945-2.6302-4.5522-0.25593-0.68286 0.11529-0.1668 0.64166 0.67917zm49.616-72.39c0.16892 0.03252 0.32443 0.06257 0.45198 0.0848 0.51015 0.09202 1.0062 0.15816 1.0953 0.13628 0.0911-0.02226-0.83855-0.2537-2.076-0.45007-1.5544-0.24664-1.4192-0.15162-1.1003-0.08816 0.19241 0.0383 1.404 0.27339 1.6291 0.31676-3e-5 1.31e-4 -5e-5 2.62e-4 -8e-5 3.93e-4zm-49.732 20.693c0.53899-0.84798 0.75103-1.2354 0.50324-1.0663-0.36993 0.25253-1.4145 1.6642-2.4215 3.5862-0.92654 1.7683 0.38376-0.1132 1.2607-1.4906 0.26109-0.40989 0.39654-0.61937 0.65763-1.0293zm4.7038-6.2783c0.30371-0.33673 0.58748-0.6624 0.7681-0.88389 0.24653-0.30125 0.33622-0.45493 0.0704-0.2355-0.0392 0.03233-0.0946 0.08281-0.16239 0.14797v1e-6c-0.30919 0.29818-0.80644 0.83195-1.2896 1.4115-1.6925 2.0304-0.28976 0.54267 0.2926-0.08811 0.10847-0.11799 0.21733-0.23665 0.32055-0.35236zm59.812 75.3c-0.20734 0.11576-0.43479 0.24437-0.66117 0.37275-0.87048 0.49447-1.253 0.73775-0.39599 0.36815 1.351-0.58262 3.0956-1.6624 2.3917-1.431-1.9e-4 1.1e-4 -3.8e-4 2.3e-4 -5.7e-4 3.4e-4 -0.1938 0.064-0.70605 0.3392-1.3339 0.68975-2e-5 0-4e-5 -1e-5 -6e-5 -1e-5zm-63.658-71.432c0.10202-0.13891 0.20005-0.27653 0.28621-0.40019 0.33654-0.48368 0.49532-0.74879 0.2956-0.53792-0.20433 0.21572-0.7135 0.85797-1.1788 1.52-0.48499 0.68971-0.53087 0.84946-0.27413 0.54885 0.20987-0.24576 0.57465-0.72479 0.87117-1.1306zm60.433 73.453c-0.72727 0.32964-1.7448 0.78417-2.5838 1.1487-5.7976 2.5187 2.4483-0.6604 2.8609-0.85954 4.6298-2.2344 0.38128-0.58296 0.33843-0.56439-3.8e-4 1.9e-4 -7.7e-4 3.8e-4 -1e-3 5.6e-4 -0.16133 0.0704-0.37306 0.1653-0.61423 0.27468-4e-5 -1e-5 -8e-5 -2e-5 -1.1e-4 -3e-5zm-53.947-8.1158c-0.25935-0.23929-0.54953-0.50526-0.80465-0.73774-0.69883-0.63957-1.354-1.2306-1.6689-1.447-0.38151-0.26202 0.11332 0.43285 1.435 1.6929 0.40302 0.38246 0.86566 0.7981 1.3811 1.2301 2.4628 2.0641 1.2657 0.78147 0.5948 0.13903-0.27997-0.26817-0.61387-0.57896-0.93729-0.87728zm-10.227-13.106c-1.412-2.6178-2.462-4.9477-2.763-5.2419-0.51988-0.50809 1.3419 4.1235 2.8828 6.7576 3.2019 5.4732 3.5604 5.1044 0.50321-0.37948-1.2e-4 -2e-4 -2.3e-4 -4e-4 -3.5e-4 -6e-4 -0.21315-0.38323-0.42086-0.7603-0.62264-1.1356h-7e-5zm53.278 25.047c-1.3935 0.2942-2.7235 0.57723-2.2947 0.6287 0.31649 0.038 1.2189-0.0306 2.0597-0.17864 2.5209-0.44404 3.2632-0.98606 2.4696-0.87944-0.50614 0.068-1.4298 0.25953-2.2346 0.42934zm-17.92 0.28284c-0.1738-0.0317-0.34038-0.0612-0.48496-0.0844-1.1755-0.18389-1.7964-0.0716-0.48388 0.33406 0.77407 0.23923 1.0222 0.28304 2.1671 0.30268 0.72922 0.0125 0.82459-0.10118 0.32446-0.22942-2.3e-4 -3e-5 -4.5e-4 -6e-5 -6.7e-4 -9e-5 -0.37097-0.0951-1.021-0.22996-1.522-0.32298-2e-5 4e-5 -3e-5 7e-5 -5e-5 1.1e-4zm38.875-9.7229c-0.29499 0.23636-0.527 0.44127-0.80955 0.70638-0.6819 0.63968 0.90836-0.30718 2.27-1.4984 1.4884-1.3022 0.58038-0.7379-0.35066-0.0472-1.8e-4 1.5e-4 -3.6e-4 3e-4 -5.4e-4 4.4e-4 -0.49137 0.36458-0.80301 0.59383-1.1092 0.8388-1e-5 1e-5 -3e-5 1e-5 -4e-5 2e-5zm17.073-25.247c-0.27591 0.9583-0.42225 1.5381-0.14267 0.90272 0.19112-0.43418 0.50808-1.4324 0.72526-2.3627 0.61684-2.6419 0.019-0.62748-0.23547 0.25825-6e-5 2.1e-4 -1.1e-4 4.3e-4 -1.7e-4 6.5e-4 -0.12029 0.41745-0.22672 0.78361-0.34701 1.2011zm-81.52 23.067c-0.23378-0.215-0.47567-0.43919-0.72797-0.67614-2.2622-2.1347-4.8854-5.1468-5.0607-5.1585-0.29462-0.0195 0.69785 1.6929 3.2376 4.4075 0.45119 0.48225 0.88199 0.92029 1.2864 1.315 2.2445 2.179 3.9479 3.3239 5.1994 3.9805 1.8072 0.94824-0.17554-0.43079-3.0253-3.0371-0.26722-0.24469-0.57623-0.52491-0.90942-0.83134zm8.932 6.5642c-0.98261-0.56696-1.5431-0.87039-2.0302-1.0524-1.7339-0.64778 3.6265 2.44 4.9632 3.0427 3.1908 1.4388 0.72588 0.0759-0.73015-0.73215-0.85989-0.4772-1.6734-0.95273-2.2029-1.2582zm25.529 7.0049c-2.5812 0.0418-5.0062-0.10161-5.808-0.0691-0.62691 0.0255 1.238 0.68908 5.3376 0.74728 0.35552 5e-3 0.70382 5e-3 1.0444 0 6.8088-0.1167 10.179-1.3448 3.9013-0.8913-1.2278 0.0887-2.4885 0.16417-3.9185 0.202-0.18618 4e-3 -0.37172 8e-3 -0.55687 0.0111zm-43.976-76.545c0.13155-0.21798 0.26492-0.44026 0.38286-0.64105 0.44779-0.76391 0.60739-1.126 0.19331-0.61024-0.40504 0.50448-1.0329 1.4748-1.497 2.3488-0.47619 0.89689-0.4668 1.0584-0.16033 0.62018 0.24023-0.34353 0.69878-1.0852 1.0813-1.7175zm87.37 0.09756c0.11833 0.2 0.25391 0.42666 0.38635 0.64785 0.49418 0.82675 0.80224 1.3243 0.52948 0.7494-0.25318-0.53389-0.66655-1.2861-1.0077-1.8287-0.32047-0.50972-0.57593-0.82977-0.55981-0.72817 0.0123 0.0778 0.28838 0.54868 0.65169 1.1596zm-46.31 78.119c-0.16672-7e-3 -0.33954-0.0141-0.499-0.0199-0.62311-0.0199-0.94341-7e-3 -0.61878 0.0494 0.32273 0.0565 1.0657 0.11273 1.7316 0.11975 0.67052 7e-3 0.90122-0.0333 0.61805-0.0697-0.22154-0.0285-0.73546-0.0578-1.2319-0.0798zm47.417-24.84c-0.59074 0.97548-0.97983 1.6737-0.35326 0.87406 0.40553-0.51743 0.92555-1.3116 1.2326-1.8812 1.059-1.9647 0.3451-1.0009-0.11727-0.24272-0.27068 0.44392-0.55867 0.9144-0.76202 1.2499zm-51.061 25.209c-0.28519-0.0256-0.60061-0.0252-0.69645 5e-3 -0.0949 0.0293 0.38414 0.11658 1.0768 0.17481 0.71694 0.0604 0.97803 0.0378 0.69732-0.0187-0.29469-0.0594-0.80362-0.13551-1.0777-0.1606zm-44.342-69.785c0.0859-0.25233 0.1766-0.51876 0.2477-0.73024 0.74736-2.2299 0.33627-1.7893-0.51265 0.62064-0.89288 2.5348-1.1365 4.1836-0.49857 2.3588 0.19852-0.56798 0.49684-1.4659 0.76354-2.2492z" style="stroke-width:.26458px;stroke:#000"/>
</svg>
