<?xml version="1.0" encoding="UTF-8" standalone="no"?>
<svg
   xmlns:dc="http://purl.org/dc/elements/1.1/"
   xmlns:cc="http://creativecommons.org/ns#"
   xmlns:rdf="http://www.w3.org/1999/02/22-rdf-syntax-ns#"
   xmlns:svg="http://www.w3.org/2000/svg"
   xmlns="http://www.w3.org/2000/svg"
   width="210mm"
   height="297mm"
   viewBox="0 0 210 297"
   version="1.1"
   id="svg869">
  <defs
     id="defs863" />
  <metadata
     id="metadata866">
    <rdf:RDF>
      <cc:Work
         rdf:about="">
        <dc:format>image/svg+xml</dc:format>
        <dc:type
           rdf:resource="http://purl.org/dc/dcmitype/StillImage" />
        <dc:title></dc:title>
      </cc:Work>
    </rdf:RDF>
  </metadata>
  <g
     id="layer1">
    <path
       style="fill:#000000;stroke:#000000;stroke-width:0.264583px;stroke-linecap:butt;stroke-linejoin:miter;stroke-opacity:1"
       d="m -207.89314,93.684778 c 0.0882,-0.1083 0.1645,-0.218506 0.23521,-0.329796 -0.0386,-0.03759 -0.0746,-0.07715 -0.11567,-0.112937 -0.006,-0.0056 -0.0166,0.02085 -0.0214,0.03109 -0.0567,0.118849 -0.20718,0.365936 -0.28413,0.517948 0.0617,-0.03552 0.1238,-0.0708 0.18594,-0.106256 1e-5,-1.6e-5 2e-5,-3.3e-5 3e-5,-5e-5 z m -19.00297,40.276602 c -0.20798,-0.84296 -0.40347,-1.35121 -0.37906,-0.62685 0.0461,1.36894 0.0178,4.34568 -0.15842,4.29034 -0.0894,-0.028 -0.35532,-0.59418 -0.57043,-1.26967 -0.19692,-0.6182 -0.30594,-0.85594 -0.16027,-0.16948 0.69287,3.26448 -0.5904,-1.53015 -0.81299,-2.8507 -0.37667,-2.23475 -0.39422,-2.7469 -0.58015,-3.47298 -0.13054,-0.50867 -0.27734,-1.54341 -0.32334,-2.48328 -0.0166,-0.34294 -0.0238,-0.62172 -0.0246,-0.82986 0,0 0,0 0,0 -0.004,-0.60968 0.0406,-0.69316 0.12918,-0.54398 0.17757,0.29911 0.16071,-1.87523 0.52612,-5.14023 0.2225,-1.98875 0.32831,-4.01699 -0.0647,-2.87221 -0.0925,0.26938 -0.0804,-0.20286 0.12051,-1.22921 0.21292,-1.08776 0.29813,-1.57725 0.0733,-1.02035 -1.19526,2.9606 0.42188,-3.31071 1.99567,-6.63159 0.74648,-1.57516 0.60071,-1.09799 0.31692,-0.28104 -0.97516,2.80705 -0.23065,1.35613 1.86014,-2.48784 1.11682,-2.0533 1.22228,-2.13331 1.54389,-3.43941 0.085,-0.34518 0.15903,-0.61009 1.5821,-2.26534 1.41887,-1.650354 1.42285,-1.460822 1.17996,-0.992207 -0.3526,0.680257 -0.10326,0.383447 0.92092,-0.682338 0.34243,-0.356361 0.71851,-0.719688 1.0952,-1.059102 0.43274,-0.392293 0.82517,-0.715145 1.07375,-0.897877 0.63576,-0.467362 3.96169,-3.179263 4.30202,-3.51044 0.31186,-0.303554 0.2456,-0.391498 -0.20168,-0.153577 -0.70612,0.375695 -0.52796,0.06744 2.44395,-1.664644 3.57843,-2.086103 5.01797,-2.552043 5.54078,-2.957727 0.22843,-0.177232 -0.71606,0.05279 -1.91653,0.500686 -1.2502,0.466451 -2.53494,1.079123 -3.27668,1.554972 -1.99847,1.28208 -3.51145,2.249829 -5.67951,3.898316 -1.7701,1.345888 -3.07291,2.48613 -2.98209,2.165224 0.0968,-0.34204 1.8076,-2.14032 5.20176,-4.260119 1.54436,-0.964507 2.48364,-1.470073 2.01762,-1.25622 -0.42859,0.196786 -0.64069,0.178852 1.23121,-1.021422 1.47432,-0.945397 3.36492,-2.036062 5.68746,-3.077074 2.84075,-1.273311 4.41114,-1.660448 6.23512,-1.981676 1.40925,-0.24814 3.84685,-0.599345 5.42146,-0.754397 1.23346,-0.121507 2.29525,-0.14966 2.92788,-0.140778 0.1896,0.0022 0.32358,0.0079 0.3822,0.01503 0.24295,0.02938 2.13599,0.02875 4.20106,0.213703 2.27709,0.20383 4.35815,0.643466 5.55024,0.98279 4.21314,1.199111 8.14104,3.043241 8.00233,2.75791 -0.0327,-0.06726 -2.91112,-1.577259 -6.4869,-2.681674 -3.94228,-1.217613 -7.44289,-1.63424 -9.85705,-1.715856 -1.05842,-0.03578 -1.50025,-0.02946 -1.80471,-0.08743 -0.16412,-0.03157 -0.24468,-0.07848 -0.30555,-0.148239 -0.22111,-0.253551 -1.7495,-0.631308 -7.37254,0.565749 -4.39064,0.934736 -5.53563,1.589267 -2.33625,0.843884 3.56547,-0.830673 1.8649,-0.5791 -2.76892,0.904989 -5.46843,1.751441 -6.93376,2.505739 -3.29571,0.812054 1.32954,-0.618904 2.50174,-1.111481 2.5638,-1.184509 0.0639,-0.07532 0.77252,-0.430583 1.60196,-0.764917 1.05043,-0.423379 2.00296,-0.776308 3.12817,-1.151224 1.08473,-0.361405 2.31915,-0.659039 3.69774,-0.855972 1.3782,-0.196903 3.48426,-0.481018 5.0474,-0.624361 1.36693,-0.126717 2.3945,-0.189518 1.91777,-0.261404 -0.48691,-0.07344 0.24723,-0.171615 2.80802,0.01108 5.19848,0.370877 5.42689,0.322887 0.83384,-0.929647 -1.32277,-0.360684 -2.6719,-0.661596 -4.04314,-0.898183 2.1117,-0.04536 4.23041,0.0622 6.33646,0.317257 8.64994,1.047675 10.93332,2.579146 9.47757,1.819764 -0.62634,-0.326764 -0.84881,-0.581662 -0.44003,-0.567088 0.47628,0.01715 0.37233,-0.196759 -1.83517,-1.073589 -2.01392,-0.799939 -3.22939,-1.125767 -5.21114,-1.440513 -2.11341,-0.335653 -6.51767,-0.83377 -2.97257,-0.564949 2.09693,0.159057 4.78472,0.416402 1.63405,-0.1803 -1.15143,-0.218057 -2.38818,-0.371964 -3.18964,-0.425998 -0.69953,-0.04716 -2.86779,-0.261904 -4.83978,-0.330501 -0.19573,-0.0068 -0.39227,-0.01206 -0.58927,-0.01573 0,0 0,0 0,0 -1.85961,-0.03209 -3.48119,0.08785 -4.08751,0.172004 -1.43494,0.1992 -3.65519,0.338648 -1.53749,-0.129537 0.14653,-0.03239 2.13829,-0.775174 -2.00412,-0.02883 -0.95883,0.172825 -2.05845,0.527718 -2.74953,0.872946 -0.61507,0.307278 -1.41682,0.653462 -1.72313,0.731051 -0.46019,0.116601 -2.75719,0.662908 -5.61957,1.733676 -3.71779,1.390767 -5.85731,2.661337 -7.78603,3.992764 -1.97675,1.364592 -3.10497,2.276416 -4.32341,3.242279 -1.02023,0.808629 -1.83017,1.571225 -2.48165,2.290249 -0.34724,0.382864 -0.87717,0.939185 -1.52701,1.649797 -0.52145,0.572067 -1.11259,1.236196 -1.75148,1.994274 -1.34426,1.595692 -2.45758,3.204171 -3.0423,4.167898 -0.47877,0.789066 -1.03951,1.700266 -1.2122,1.920686 -0.22071,0.28163 -1.11348,1.70635 -1.9761,3.41221 -1.46925,2.90531 -1.51604,3.11569 -2.65609,5.16619 -0.74222,1.33496 -1.07969,1.83379 -0.90364,1.00471 0.29649,-1.39649 0.175,-1.95516 -0.57297,-0.0539 -0.31634,0.80393 -0.4692,0.88869 -0.30559,-0.094 0.20649,-1.23979 -1.13096,0.45385 -1.99851,4.3651 -0.85237,3.84296 0.23057,2.1356 0.66049,0.79023 0.73164,-2.28964 0.66454,-1.61555 0.80553,1.13636 0.0873,1.70391 -0.14016,4.60908 -0.44509,4.98118 -0.32524,0.39692 -0.69335,2.47255 -0.65723,4.37335 0.0103,0.5454 0.0462,1.04462 0.0882,1.38452 0.0264,0.2103 0.0541,0.3518 0.0769,0.38855 0.0593,0.0956 0.18411,1.17417 0.33974,2.38578 0.21774,1.69546 0.34615,2.68518 0.54572,4.32039 0.25554,2.09395 0.89998,5.36007 2.73357,9.66095 2.25918,5.29906 3.38262,6.67193 3.69848,7.57927 0.16338,0.46923 0.71816,1.64223 2.4602,4.008 1.38374,1.87928 2.82967,3.46799 3.66538,4.27417 0.4024,0.38821 0.99823,0.98522 1.7036,1.6619 0.64392,0.61534 1.31388,1.23599 2.0558,1.89428 0.78709,0.6987 12.47497,8.88221 4.76713,2.89262 -1.4477,-1.12495 -1.04061,-0.91759 -0.38429,-0.49331 0.77024,0.49788 1.97571,1.14231 3.00821,1.59003 1.59794,0.6929 1.92585,0.908 4.49488,2.10905 1.53569,0.7179 3.2916,1.45805 3.86207,1.73854 0.63194,0.31072 1.82481,0.77992 2.94269,1.12257 1.53706,0.47118 1.37185,0.47588 -0.81411,-0.1389 -6.30848,-1.7743 -10.08675,-3.70906 -7.15249,-2.18953 0.89173,0.46179 2.59845,1.21941 4.61016,1.90553 1.9811,0.67569 3.73214,1.09995 4.43964,1.21971 0.53184,0.0901 1.97882,0.39826 3.0768,0.62313 1.42388,0.29167 2.6462,0.43152 4.20441,0.46314 2.90828,0.059 3.24249,0.0203 5.43956,0.24198 0.20704,0.0208 0.35183,0.0381 0.43205,0.0548 0,0 0,0 0,0 0.0923,0.0191 0.0962,0.0374 0.001,0.0564 -0.17586,0.0348 -0.82742,0.0848 -1.91025,0.0934 -3.8722,0.0308 -3.95236,0.28189 -0.0755,0.44275 0.65917,0.0273 1.33339,0.0368 1.99975,0.0285 0.98711,-0.0143 1.8187,-0.0666 2.2792,-0.1117 0.35973,-0.0352 2.46421,-0.20198 2.97607,-0.23787 1.16607,-0.0818 2.64646,-0.33272 3.90465,-0.63863 1.26266,-0.30698 1.81856,-0.53675 1.20931,-0.45882 -0.45118,0.0577 -1.74531,0.28813 -2.43899,0.4262 -0.86215,0.17136 -2.17879,0.31136 -3.22856,0.33036 -2.38039,0.0431 -0.84672,-0.0244 2.04381,-0.58864 4.18788,-0.8175 6.97445,-1.77511 8.39188,-2.10625 1.52857,-0.35707 4.21476,-1.5366 5.52735,-2.42865 0.89398,-0.60749 1.25708,-0.60783 4.87757,-2.85168 2.70723,-1.6778 4.4011,-3.11164 5.57691,-4.23844 1.92763,-1.84724 1.54323,-1.58542 2.80592,-2.55862 0.0486,-0.0374 0.0965,-0.075 0.14389,-0.11265 0.66782,-0.53311 1.26044,-1.12659 1.94127,-1.97348 0.75878,-0.94382 0.55413,-0.83875 -0.0958,-0.22921 -0.37251,0.3493 -0.75011,0.69205 -1.13262,1.02809 1.7163,-2.02151 3.25354,-4.17815 4.6026,-6.4382 2.84593,-4.76788 3.72793,-8.0315 3.80273,-8.33994 0.45345,-1.86954 -0.51809,-0.58864 -1.86799,1.6437 -1.02508,1.69517 -1.01991,1.41386 -0.65816,0.20372 0.80401,-2.68951 -0.24659,-0.29189 -2.00897,2.81519 -1.10755,1.95269 -2.43629,3.77676 -3.70866,5.23747 -1.24627,1.43073 -2.02355,2.05961 -1.78353,1.65753 0.52873,-0.88571 0.44058,-0.59671 2.05661,-2.7544 0.95166,-1.27056 1.72737,-2.4957 2.0598,-3.08322 0.51296,-0.90661 0.92942,-1.54396 1.86681,-3.32673 0.78194,-1.48808 1.41982,-2.99543 1.73864,-3.89855 0.35524,-1.00636 0.54331,-1.48991 0.75056,-1.75043 0.85573,-1.076 2.96706,-5.4017 3.3517,-12.66694 0.0644,-1.21568 0.0684,-2.21786 0.0658,-2.85476 0,0 0,0 0,0 -0.007,-1.60003 -0.0317,-1.86885 0.11353,-1.27534 0.17545,0.71692 0.3443,0.004 0.24462,-1.99161 -0.0979,-1.96108 -0.45913,-4.538 -1.25254,-7.28595 -1.73287,-6.00181 -1.39551,-2.80512 -1.29558,-2.28181 0.30659,1.60602 0.12231,1.29749 -0.43226,0.0348 -0.43086,-0.98099 -0.99071,-1.77906 -1.21079,-1.80729 -0.13193,-0.017 -0.26382,-0.0335 -0.39565,-0.0496 0.51775,1.53705 0.95325,3.09829 1.30362,4.67464 0.70769,3.18449 1.05977,6.15931 1.14248,9.19276 0.008,0.29127 0.0127,0.56947 0.0152,0.83335 0,0 0,0 0,0 0.0217,2.25854 -0.12963,5.47417 -0.47564,8.14837 -0.45418,3.51015 -0.81327,4.40691 -0.8042,4.06221 0.007,-0.25407 -0.16791,0.12838 -0.39959,0.80098 -0.24649,0.71574 -0.36546,0.8653 -0.29213,0.4945 0.22026,-1.11388 -0.70258,1.45565 -2.38478,4.88533 -1.68077,3.42678 -1.30903,2.19421 -1.256,2.04767 0.39705,-1.09723 -0.18331,-0.46982 -1.01987,0.63489 -0.88386,1.16718 -2.19837,2.97129 -3.46156,4.65343 -2.2083,2.94069 -2.39684,2.97406 -0.63041,0.33553 3.33215,-4.97725 4.68584,-9.81185 4.33895,-9.21818 -0.19529,0.33442 -0.57984,1.12842 -0.7921,1.62437 -0.28456,0.6649 -1.3756,2.90158 -3.05132,5.34479 -1.61936,2.36103 -3.20514,4.20659 -4.51096,5.6145 -0.22452,0.24323 -0.4401,0.47273 -0.64424,0.68777 -1.37301,1.44632 -2.7395,2.66263 -3.99947,3.67161 -1.20216,0.96271 -3.14239,2.28503 -5.50332,3.49786 -2.26018,1.16107 -4.27902,1.88679 -4.84555,2.02212 -0.60519,0.14457 0.22646,-0.18076 1.85723,-0.96655 2.86424,-1.38012 3.03087,-1.69347 0.43176,-0.58496 -1.16208,0.49558 -2.39575,1.02711 -3.80885,1.59701 -1.17408,0.47341 -3.96042,1.47038 -8.05442,1.96558 -1.53469,0.18564 -2.93092,0.27143 -4.19109,0.29916 -1.46873,0.0364 -2.57053,-0.0105 -2.89712,-0.005 -1.95228,0.0343 -5.30859,-0.54409 -6.94494,-1.16682 -0.83003,-0.3159 -1.58401,-0.46153 -3.99448,-1.22977 -1.96182,-0.62517 -4.25504,-1.58303 -6.83248,-3.14787 -2.22187,-1.34923 -3.91505,-2.72026 -4.495,-3.24786 -0.59281,-0.53926 -1.47242,-1.21755 -2.84944,-2.41586 -0.15763,-0.1372 -0.31448,-0.27728 -0.46972,-0.41948 0,0 0,0 0,0 -0.96481,-0.87807 -1.75583,-1.74066 -2.08815,-2.16911 -0.63566,-0.81948 -1.58956,-2.00594 -2.77777,-3.83626 -1.05238,-1.62109 -1.92193,-3.25586 -2.15558,-3.64994 -0.22502,-0.37946 -0.42894,-0.5767 -0.45868,-0.42566 -0.0596,0.30251 -0.82694,-0.96082 -1.09406,-1.82608 -0.25863,-0.8378 -0.57083,-2.2498 -0.77114,-3.73763 -0.18902,-1.40394 -0.23625,-2.62692 -0.1856,-2.70335 0.065,-0.0981 0.0229,-0.5854 -0.0815,-1.07902 -0.081,-0.38282 -0.16144,-0.7383 -0.23447,-1.03414 -1.9e-4,6e-5 -3.8e-4,1.3e-4 -5.6e-4,1.9e-4 z m 14.01834,-39.263727 c -0.0161,-0.0097 -0.0157,-0.0074 -0.0261,-0.01298 -0.005,0.0035 -0.0104,0.0073 -0.0156,0.01099 0.005,0.0064 0.004,0.0048 0.0102,0.0136 0.0102,-0.0039 0.0202,-0.0076 0.031,-0.0107 1.5e-4,-3.05e-4 3e-4,-6.1e-4 4.6e-4,-9.15e-4 z m -4.88645,4.092339 c 0.0109,-0.01165 0.0217,-0.02331 0.0325,-0.03498 0.23321,-0.254087 0.45562,-0.519942 0.83118,-0.945164 0.061,-0.139816 0.13334,-0.281585 0.21705,-0.424575 -0.22551,0.08494 -0.79342,0.465418 -1.43916,0.997805 0,0 0,0 0,0 -0.76853,0.629141 -1.56146,1.400924 -2.14156,2.121447 -0.66607,0.828 -1.11336,1.34196 -1.62289,1.79408 -0.48556,0.43087 -1.10901,1.13529 -2.20226,2.96117 -1.11246,1.85802 -1.48682,2.79533 -1.7629,3.62577 -0.83411,2.50871 1.04319,-1.1702 2.75059,-4.15035 0.6202,-1.08253 0.99563,-1.55523 1.85319,-2.35216 0.62861,-0.58461 1.52694,-1.50924 2.21272,-2.25478 0.66305,-0.720885 0.99639,-1.042876 1.27156,-1.338258 z m 24.91743,-12.635258 c 0.32523,-0.0265 1.39668,-0.129472 2.28757,-0.184377 -2.8e-4,1.8e-5 0.0655,-0.0042 0.0652,-0.0042 2.02642,-0.128615 2.8198,-0.07354 1.694,-0.257459 -0.46027,-0.0752 -1.06953,-0.120246 -1.7686,-0.115869 -0.32659,0.001 -0.67087,0.01274 -1.02832,0.03653 -2.7374,0.18217 -3.02449,0.557005 -2.43822,0.57176 0.34907,0.0088 0.65452,-0.0026 1.18837,-0.04641 z m 36.02431,62.544096 c -0.0735,0.10536 -0.14742,0.21308 -0.21561,0.31541 -0.26743,0.39896 -0.3798,0.61106 -0.2056,0.43184 0.17365,-0.17864 0.52091,-0.63804 0.79416,-1.06533 0.274,-0.42835 0.34005,-0.60698 0.19132,-0.43943 -0.11527,0.12979 -0.34528,0.44434 -0.56402,0.75768 -9e-5,-6e-5 -1.7e-4,-1.2e-4 -2.5e-4,-1.7e-4 z m -12.74547,-57.937262 c 0.23228,0.131021 0.47071,0.263863 0.74713,0.417596 0.84,0.468647 1.58098,0.887695 1.67017,0.891927 0.11656,0.0054 0.50209,0.233117 1.33262,0.864587 1.46545,1.114187 3.54122,2.84019 3.7397,2.881854 0.52052,0.109445 -2.55779,-2.449826 -3.90976,-3.303676 -0.77548,-0.489709 -2.04369,-1.270994 -2.81991,-1.739043 -2.81067,-1.694798 -2.73238,-1.250238 -2.4025,-1.020069 0.46815,0.326667 0.94566,0.61399 1.64255,1.006815 z m -3.26109,-3.918257 c 1.9881,0.85063 5.09278,2.40622 5.88858,2.728815 0.63739,0.258381 0.74685,0.21415 -0.62948,-0.694468 -2.17962,-1.43896 -4.90079,-2.605956 -6.76253,-3.049723 -1.47556,-0.351669 -0.71842,0.04999 0.73598,0.68521 0.22198,0.09713 0.48542,0.209268 0.76759,0.329845 z m 25.71176,36.272779 c 0.006,0.11316 0.0145,0.24104 0.0253,0.37885 0.0414,0.53713 0.0857,0.81527 0.11138,0.55021 0.0248,-0.25643 0.0282,-0.63884 0.008,-0.87536 -0.0202,-0.23109 -0.0757,-0.47642 -0.12323,-0.54789 -0.0359,-0.0541 -0.0396,0.15536 -0.0214,0.49418 z m -34.61794,-39.581559 c 0.84769,0.158697 1.58338,0.311624 2.34866,0.47974 2.53076,0.556096 4.59953,1.122116 2.31303,0.184415 -0.8439,-0.346082 -2.44481,-0.830252 -4.26313,-1.187728 -1.82259,-0.358316 -3.48417,-0.514897 -4.41497,-0.513034 -1.75967,0.0035 -0.0463,0.329709 1.99538,0.682815 0.57499,0.09946 1.14378,0.189981 2.02104,0.353762 z m 34.11915,31.212619 c 0.89521,3.47911 1.56009,7.56912 1.39928,4.76856 -0.0445,-0.77495 -0.34218,-2.9095 -0.97551,-5.27468 -0.82262,-3.07266 -1.34153,-4.3146 -1.60033,-5.26803 -0.50492,-1.86091 -1.87266,-4.68949 -3.06174,-6.30558 -1.6504,-2.24309 0.028,0.49052 1.53111,3.68006 1.13309,2.40453 1.52254,3.74733 1.53615,4.02809 0.01,0.20499 0.37213,1.44652 0.71623,2.67845 0.16005,0.57285 0.31056,1.13282 0.45475,1.69314 z m -20.71357,-27.059792 c 0.41049,0.226094 0.82285,0.458342 1.23637,0.694881 1.60131,0.917632 2.97352,1.878133 3.68379,2.433945 2.84356,2.225781 4.55443,3.76672 4.0407,2.58979 -0.30045,-0.688281 -0.61832,-1.236673 -2.75433,-3.067147 -2.59688,-2.225417 -6.50351,-4.829852 -12.51215,-6.684478 -1.67451,-0.51688 -3.37439,-0.936085 -5.08763,-1.254698 0.87417,0.307775 1.73602,0.64177 2.5841,1.000776 2.98289,1.262673 6.06931,2.776184 8.80918,4.286887 -1e-5,1.5e-5 -2e-5,2.9e-5 -3e-5,4.4e-5 z m 22.5275,39.994402 c -0.0629,1.21968 -0.0922,1.98316 0.004,2.11193 0.28477,0.38267 0.56322,-3.42308 0.42426,-5.34931 -0.0381,-0.53129 -0.0972,-0.95533 -0.1624,-1.17868 -0.10892,-0.37307 -0.11101,-0.0183 -0.13679,1.18613 -0.004,0.17175 -0.008,0.36548 -0.014,0.57567 0,2e-4 0,4e-4 10e-6,6e-4 -0.0295,1.02397 -0.077,1.92302 -0.11473,2.65365 1e-5,0 2e-5,1e-5 4e-5,1e-5 z m -1.25749,-15.37519 c 0.0639,0.20242 0.13189,0.41442 0.1948,0.60747 0.24785,0.75451 0.40683,1.14196 0.34358,0.71828 -0.0627,-0.41966 -0.31082,-1.33152 -0.6032,-2.13569 -0.29713,-0.81743 -0.45412,-1.04995 -0.37848,-0.70175 0.06,0.27576 0.25295,0.91025 0.44282,1.51184 z m -5.51282,-11.85419 c 0.86234,1.29961 1.5877,2.3879 1.21421,1.56042 -0.2609,-0.57802 -0.77819,-1.45 -1.57589,-2.520175 -1.87797,-2.519444 -0.50807,-0.351207 -0.0464,0.344481 0.13579,0.205084 0.27237,0.410174 0.40817,0.615254 z m -5.2981,-6.546662 c 0.10081,0.10106 0.20613,0.205232 0.3036,0.300842 0.38365,0.372735 0.59401,0.543705 0.42728,0.318106 -0.16599,-0.224609 -0.60258,-0.693995 -1.01825,-1.080357 -0.41765,-0.388149 -0.594,-0.495266 -0.43816,-0.303741 0.12127,0.149128 0.42469,0.463994 0.72532,0.765361 z m 4.62588,4.911429 c 1.16413,1.592213 2.32267,3.213203 2.09628,2.631043 -0.39975,-1.02799 -2.37158,-3.83471 -3.62409,-5.09349 -0.63096,-0.634072 0.16018,0.575862 1.04158,1.794365 0.15599,0.215607 0.32287,0.44496 0.48665,0.667775 z m 2.02751,1.906563 c 0.9341,1.44567 1.68924,2.65711 1.28384,1.70701 -0.53823,-1.26158 -2.32482,-3.913845 -3.17597,-4.727578 -0.33961,-0.324719 0.0156,0.168825 0.79843,1.348429 0.40349,0.608013 0.74654,1.134279 1.09372,1.672119 z m -13.55069,63.56992 c 0.39775,-0.24818 0.87094,-0.52869 1.13227,-0.66242 0.34017,-0.17389 0.30693,-0.0816 -0.18031,0.26163 -0.48258,0.33987 -1.1366,0.72272 -1.52758,0.90146 -0.39371,0.17981 -0.26444,0.0445 0.1892,-0.25407 0.11789,-0.078 0.25022,-0.16228 0.38648,-0.24651 z m -9.54731,4.70754 c 0.5717,-0.20942 1.19251,-0.40495 2.29284,-0.8032 1.21634,-0.44019 1.90908,-0.70793 0.42842,0.009 -1.95636,0.94787 -4.78174,1.90041 -5.73425,2.04419 -0.24633,0.0371 0.22736,-0.16419 0.98188,-0.45633 2e-4,-6e-5 4e-4,-1.2e-4 6e-4,-1.8e-4 0.93678,-0.3627 1.45884,-0.58439 2.03051,-0.79386 0,-3e-5 0,-5e-5 0,-8e-5 z m 17.02462,-10.55086 c 0.10782,-0.1003 0.0808,-0.0564 -0.15395,0.19976 -0.43662,0.47658 -1.03287,1.05055 -1.452,1.40488 -0.49083,0.41496 0.0696,-0.10641 0.76905,-0.7859 0.44009,-0.4276 0.7198,-0.70913 0.83697,-0.81867 z m -62.68441,-67.898709 c -0.34787,0.299956 -1.05971,0.902536 -1.76074,1.529523 -2.54642,2.277688 -1.82215,1.283944 1.05405,-1.174187 1.48367,-1.267977 1.70367,-1.313145 1.52318,-1.109518 -0.14783,0.166864 -0.39638,0.391935 -0.81649,0.754174 z m 52.36332,-6.143088 c 0.18071,0.09659 0.34715,0.184924 0.48251,0.253811 0.35575,0.182356 2.09802,0.861487 -0.36966,-0.514889 -1.81721,-1.013521 -3.33546,-1.489434 -1.87824,-0.69164 0.28617,0.156665 1.45819,0.78795 1.76559,0.952338 z m -57.06203,10.032833 c -0.41915,0.467473 -1.00013,1.084175 -1.4474,1.52144 -0.51279,0.501402 -0.65965,0.56111 0.0318,-0.295422 0.44064,-0.545496 1.40517,-1.809111 1.73467,-2.279366 0.12241,-0.174665 0.25608,-0.354329 0.4081,-0.545761 0.50007,-0.628176 1.44776,-1.684089 3.02441,-3.08848 3.14198,-2.798756 4.13081,-3.28757 1.32597,-0.869785 -1.02486,0.883398 -1.7391,1.628232 -1.64077,1.597313 0.1015,-0.03196 -0.47165,0.548094 -1.22476,1.317162 -0.51618,0.527074 -0.94505,1.013016 -1.1935,1.320983 -0.11721,0.145584 -0.18771,0.243634 -0.19593,0.272404 -0.0431,0.150031 -0.38287,0.55978 -0.82222,1.048978 -1.4e-4,1.78e-4 -2.8e-4,3.56e-4 -4.2e-4,5.34e-4 z m 82.54985,33.834794 c -0.009,0.15194 -0.0174,0.30802 -0.0236,0.45355 -0.0256,0.56708 -0.015,0.85508 0.0441,0.56266 0.0588,-0.29095 0.1218,-0.96743 0.136,-1.57061 0.0142,-0.60639 -0.023,-0.82052 -0.063,-0.56221 -0.0313,0.20136 -0.0662,0.6654 -0.0931,1.11663 -1.3e-4,0 -2.6e-4,-1e-5 -4e-4,-2e-5 z m -87.99947,22.64465 c 0.30697,0.49337 0.77089,1.264 1.17827,1.95115 0.62765,1.05874 1.65607,2.51563 2.91546,3.96391 1.18945,1.36778 2.27963,2.51149 2.62484,2.9438 0.12801,0.16029 0.34161,0.40468 0.60528,0.68724 0,0 0,0 0,0 0.40396,0.43155 0.87737,0.90165 1.35049,1.33371 1.74159,1.59055 1.49133,1.57477 -1.56271,-1.11065 2e-5,2e-5 -0.0199,-0.0175 -0.0198,-0.0175 -1.7852,-1.57696 -3.09592,-2.92607 -5.10331,-5.87866 -1.43622,-2.11254 -2.45855,-4.09449 -2.63016,-4.55215 -0.25593,-0.68286 0.11529,-0.1668 0.64166,0.67917 z m 49.61605,-72.390036 c 0.16892,0.03252 0.32443,0.06257 0.45198,0.0848 0.51015,0.09202 1.00619,0.158159 1.09528,0.136277 0.0911,-0.02226 -0.83855,-0.253704 -2.07605,-0.450071 -1.55441,-0.246643 -1.41919,-0.151624 -1.10027,-0.08816 0.19241,0.0383 1.40396,0.273389 1.62914,0.31676 -3e-5,1.31e-4 -5e-5,2.62e-4 -8e-5,3.93e-4 z m -49.73158,20.693102 c 0.53899,-0.847975 0.75103,-1.235376 0.50324,-1.066287 -0.36993,0.252528 -1.41448,1.664161 -2.42151,3.586161 -0.92654,1.76828 0.38376,-0.1132 1.26067,-1.49059 0.26109,-0.40989 0.39654,-0.619372 0.65763,-1.029262 z m 4.70384,-6.278299 c 0.30371,-0.336732 0.58748,-0.662403 0.7681,-0.883889 0,0 0,0 0,0 0.24653,-0.30125 0.33622,-0.454927 0.0704,-0.235497 -0.0392,0.03233 -0.0946,0.08281 -0.16239,0.147968 0,0 0,1e-6 0,1e-6 -0.30919,0.298183 -0.80644,0.831949 -1.28965,1.411528 -1.69246,2.030355 -0.28976,0.54267 0.2926,-0.08811 0.10847,-0.11799 0.21733,-0.236646 0.32055,-0.352361 z m 59.8117,75.299793 c -0.20734,0.11576 -0.43479,0.24437 -0.66117,0.37275 -0.87048,0.49447 -1.25299,0.73775 -0.39599,0.36815 1.35096,-0.58262 3.09555,-1.66236 2.39173,-1.43098 -1.9e-4,1.1e-4 -3.8e-4,2.3e-4 -5.7e-4,3.4e-4 -0.1938,0.064 -0.70605,0.3392 -1.33394,0.68975 -2e-5,0 -4e-5,-1e-5 -6e-5,-1e-5 z m -63.65752,-71.432374 c 0.10202,-0.13891 0.20005,-0.276527 0.28621,-0.400189 0.33654,-0.483678 0.49532,-0.748789 0.2956,-0.537924 -0.20433,0.215716 -0.7135,0.857966 -1.17877,1.519975 -0.48499,0.689709 -0.53087,0.849462 -0.27413,0.548846 0.20987,-0.245765 0.57465,-0.724793 0.87117,-1.13065 z m 60.43266,73.453264 c -0.72727,0.32964 -1.74476,0.78417 -2.58383,1.14872 -5.79763,2.51874 2.44828,-0.6604 2.8609,-0.85954 4.62975,-2.23439 0.38128,-0.58296 0.33843,-0.56439 -3.8e-4,1.9e-4 -7.7e-4,3.8e-4 -0.001,5.6e-4 -0.16133,0.0704 -0.37306,0.1653 -0.61423,0.27468 -4e-5,-1e-5 -8e-5,-2e-5 -1.1e-4,-3e-5 z m -53.94651,-8.1158 c -0.25935,-0.23929 -0.54953,-0.50526 -0.80465,-0.73774 -0.69883,-0.63957 -1.35398,-1.23063 -1.66891,-1.44697 -0.38151,-0.26202 0.11332,0.43285 1.43495,1.69287 0.40302,0.38246 0.86566,0.7981 1.38108,1.23011 2.46275,2.06412 1.26567,0.78147 0.5948,0.13903 -0.27997,-0.26817 -0.61387,-0.57896 -0.93729,-0.87728 z m -10.22669,-13.1058 c -1.41199,-2.61775 -2.46198,-4.94774 -2.76298,-5.24194 -0.51988,-0.50809 1.34187,4.12353 2.88283,6.75762 3.20187,5.4732 3.56042,5.10443 0.50321,-0.37948 -1.2e-4,-2e-4 -2.3e-4,-4e-4 -3.5e-4,-6e-4 -0.21315,-0.38323 -0.42086,-0.7603 -0.62264,-1.1356 -2e-5,0 -5e-5,0 -7e-5,0 z m 53.27828,25.04657 c -1.39352,0.2942 -2.72352,0.57723 -2.29467,0.6287 0.31649,0.038 1.21891,-0.0306 2.05968,-0.17864 2.5209,-0.44404 3.26315,-0.98606 2.46958,-0.87944 -0.50614,0.068 -1.42981,0.25953 -2.2346,0.42934 z m -17.92016,0.28284 c -0.1738,-0.0317 -0.34038,-0.0612 -0.48496,-0.0844 -1.17553,-0.18389 -1.79643,-0.0716 -0.48388,0.33406 0.77407,0.23923 1.02216,0.28304 2.16707,0.30268 0.72922,0.0125 0.82459,-0.10118 0.32446,-0.22942 -2.3e-4,-3e-5 -4.5e-4,-6e-5 -6.7e-4,-9e-5 -0.37097,-0.0951 -1.021,-0.22996 -1.52197,-0.32298 -2e-5,4e-5 -3e-5,7e-5 -5e-5,1.1e-4 z m 38.87514,-9.7229 c -0.29499,0.23636 -0.527,0.44127 -0.80955,0.70638 -0.6819,0.63968 0.90836,-0.30718 2.27003,-1.49844 1.48841,-1.30218 0.58038,-0.7379 -0.35066,-0.0472 -1.8e-4,1.5e-4 -3.6e-4,3e-4 -5.4e-4,4.4e-4 -0.49137,0.36458 -0.80301,0.59383 -1.10924,0.8388 -1e-5,1e-5 -3e-5,1e-5 -4e-5,2e-5 z m 17.07297,-25.24722 c -0.27591,0.9583 -0.42225,1.53813 -0.14267,0.90272 0.19112,-0.43418 0.50808,-1.43242 0.72526,-2.3627 0.61684,-2.64192 0.019,-0.62748 -0.23547,0.25825 -6e-5,2.1e-4 -1.1e-4,4.3e-4 -1.7e-4,6.5e-4 -0.12029,0.41745 -0.22672,0.78361 -0.34701,1.20106 z m -81.51963,23.06688 c -0.23378,-0.215 -0.47567,-0.43919 -0.72797,-0.67614 -2.26216,-2.1347 -4.88535,-5.14684 -5.06074,-5.15847 -0.29462,-0.0195 0.69785,1.69288 3.23765,4.40753 0.45119,0.48225 0.88199,0.92029 1.2864,1.31503 0,0 0,0 0,0 2.24454,2.17901 3.94788,3.32389 5.19936,3.98051 1.80719,0.94824 -0.17554,-0.43079 -3.0253,-3.0371 -0.26722,-0.24469 -0.57623,-0.52491 -0.90942,-0.83134 z m 8.93204,6.56422 c -0.98261,-0.56696 -1.54313,-0.87039 -2.03021,-1.05236 -1.73392,-0.64778 3.62648,2.43998 4.96324,3.04271 3.19078,1.43876 0.72588,0.0759 -0.73015,-0.73215 -0.85989,-0.4772 -1.67344,-0.95273 -2.20287,-1.25821 z m 25.52873,7.00491 c -2.58124,0.0418 -5.00625,-0.10161 -5.80799,-0.0691 -0.62691,0.0255 1.23805,0.68908 5.33761,0.74728 0.35552,0.005 0.70382,0.005 1.04441,0 6.80884,-0.1167 10.17856,-1.34476 3.90133,-0.8913 -1.22775,0.0887 -2.48848,0.16417 -3.91849,0.202 -0.18618,0.004 -0.37172,0.008 -0.55687,0.0111 z m -43.97558,-76.54522 c 0.13155,-0.21798 0.26492,-0.44026 0.38286,-0.64105 0.44779,-0.763909 0.60739,-1.125999 0.19331,-0.610242 -0.40504,0.504484 -1.0329,1.474763 -1.49696,2.348772 -0.47619,0.89689 -0.4668,1.05836 -0.16033,0.62018 0.24023,-0.34353 0.69878,-1.08515 1.08131,-1.717547 z m 87.36976,0.09756 c 0.11833,0.200004 0.25391,0.426656 0.38635,0.647846 0.49418,0.82675 0.80224,1.32429 0.52948,0.7494 -0.25318,-0.53389 -0.66655,-1.286076 -1.00771,-1.828711 -0.32047,-0.509722 -0.57593,-0.829774 -0.55981,-0.728166 0.0123,0.0778 0.28838,0.548676 0.65169,1.159631 z m -46.31032,78.119466 c -0.16672,-0.007 -0.33954,-0.0141 -0.499,-0.0199 -0.62311,-0.0199 -0.94341,-0.007 -0.61878,0.0494 0.32273,0.0565 1.06573,0.11273 1.73162,0.11975 0.67052,0.007 0.90122,-0.0333 0.61805,-0.0697 -0.22154,-0.0285 -0.73546,-0.0578 -1.23187,-0.0798 z m 47.41655,-24.84025 c -0.59074,0.97548 -0.97983,1.67366 -0.35326,0.87406 0.40553,-0.51743 0.92555,-1.31165 1.23258,-1.88123 1.05904,-1.96469 0.3451,-1.00092 -0.11727,-0.24272 -0.27068,0.44392 -0.55867,0.9144 -0.76202,1.2499 z m -51.06066,25.20878 c -0.28519,-0.0256 -0.60061,-0.0252 -0.69645,0.005 -0.0949,0.0293 0.38414,0.11658 1.07684,0.17481 0.71694,0.0604 0.97803,0.0378 0.69732,-0.0187 -0.29469,-0.0594 -0.80362,-0.13551 -1.07771,-0.1606 z m -44.34169,-69.78503 c 0.0859,-0.25233 0.1766,-0.51876 0.2477,-0.73024 0.74736,-2.22991 0.33627,-1.78932 -0.51265,0.62064 -0.89288,2.53475 -1.13653,4.18365 -0.49857,2.35878 0.19852,-0.56798 0.49684,-1.46586 0.76354,-2.24917 z"
       id="path1728" />
  </g>
</svg>
